:SAMPLES-PER-SECOND 30
:FULLY-SPECIFIED
:DEGREES
396
root  3.50467 36.6 -0.35531 -150.143 -83.6623 151.816
RightUpLeg  -22.6118 -8.28453 -24.8699
RightLeg  21.8299 4.9511 1.97108
RightFoot  4.33227 -3.5017 25.2781
RightToes  -2.32832e-010 0 -3.6325e-017
Spine  21.2946 -5.17951 -13.7222
Spine1  -1.19257 -7.59517 -0.0769655
HEad  -32.6239 19.3549 -0.920636
LeftShoulder1  1.90493 -4.45703 -17.2788
LeftArm  0.296628 -12.2858 -39.7481
LeftForeArm  -19.9991 -46.8488 -13.2232
LeftHand  -0.0155258 -4.88531 0.461486
RightShoulder  1.70143 2.87863 20.3242
RightArm  27.9655 -33.4342 59.4261
RightForeArm  10.4388 19.7356 7.6813
RightHand  -0.152483 -0.729947 -3.66609
LeftUpLeg  -4.0865 16.5083 23.4968
LeftLeg  15.6599 7.10193 3.27504
LeftFoot  -0.446907 3.19871 -32.6785
LeftToes  2.2737e-010 4.38529e-011 2.18788e-011
397
root  3.47859 36.6934 -0.329227 -146.509 -81.5226 147.742
RightUpLeg  -22.7916 -7.85559 -26.373
RightLeg  21.5626 5.83741 2.33572
RightFoot  4.45812 -3.43785 24.6403
RightToes  -2.32832e-010 0 -3.6325e-017
Spine  20.8821 -4.35467 -13.5104
Spine1  -0.920714 -6.1467 -3.26831
HEad  -32.9815 18.0779 -0.669738
LeftShoulder1  1.80904 -4.39502 -16.1588
LeftArm  -4.2505 -14.1423 -38.8897
LeftForeArm  -25.0997 -46.8079 -13.4695
LeftHand  -0.0398558 -4.15633 0.797989
RightShoulder  1.65638 2.83347 19.765
RightArm  34.8185 -33.4883 59.2122
RightForeArm  9.36484 24.4222 4.32902
RightHand  -0.202118 -0.0457542 -4.43065
LeftUpLeg  -1.64267 16.6453 21.8374
LeftLeg  13.0272 8.59427 3.34179
LeftFoot  0.598846 3.50539 -32.7095
LeftToes  2.2737e-010 4.38529e-011 2.18788e-011
398
root  3.43088 36.7468 -0.539784 -153.201 -82.2451 154.118
RightUpLeg  -21.7757 -5.72431 -25.0206
RightLeg  21.0395 4.10632 1.53793
RightFoot  3.30576 -3.14383 24.3012
RightToes  -2.32832e-010 0 -3.6325e-017
Spine  19.7019 -3.59382 -13.1933
Spine1  1.7247 -5.44145 -2.03557
HEad  -33.7608 17.2556 -0.973628
LeftShoulder1  1.64834 -4.20266 -14.5063
LeftArm  -11.3598 -15.9136 -39.3575
LeftForeArm  -33.4049 -44.4427 -12.8335
LeftHand  -0.229327 -2.38561 3.61658
RightShoulder  1.61424 2.79573 19.2118
RightArm  34.5653 -31.2452 58.2722
RightForeArm  5.15591 24.8903 4.97553
RightHand  -0.336618 -0.471835 -7.86669
LeftUpLeg  -0.149676 17.2595 23.5626
LeftLeg  10.8464 7.94627 3.2199
LeftFoot  1.4806 3.83771 -33.3423
LeftToes  2.2737e-010 4.38529e-011 2.18788e-011
399
root  3.44707 36.7069 -0.947993 175.93 -85.2175 -174.799
RightUpLeg  -20.6361 -3.84295 -21.7844
RightLeg  21.5146 0.368948 -0.059959
RightFoot  1.74142 -2.81902 24.3467
RightToes  -2.32832e-010 0 -3.6325e-017
Spine  19.2323 -2.81779 -14.4756
Spine1  3.4602 -6.30847 5.49727
HEad  -33.3748 16.7415 -2.09279
LeftShoulder1  1.5732 -4.08306 -13.7879
LeftArm  -17.4547 -17.1681 -39.5053
LeftForeArm  -31.7053 -39.5353 -10.892
LeftHand  -0.598864 -1.69581 9.81493
RightShoulder  1.52198 2.54986 18.6882
RightArm  32.8806 -28.0496 56.2983
RightForeArm  1.025 22.4457 5.57894
RightHand  -0.494264 -0.229401 -11.1761
LeftUpLeg  -1.58833 18.0255 27.1347
LeftLeg  10.6155 4.83997 3.07259
LeftFoot  1.83091 4.03044 -34.056
LeftToes  2.2737e-010 4.38529e-011 2.18788e-011
400
root  3.60344 36.5288 -1.38201 91.0835 -85.5404 -89.304
RightUpLeg  -19.622 -5.12266 -16.3741
RightLeg  22.8677 -3.18382 -1.68655
RightFoot  0.724746 -2.62319 24.5149
RightToes  -2.32832e-010 0 -3.6325e-017
Spine  21.2095 -2.33639 -15.8251
Spine1  1.46736 -8.61038 18.6466
HEad  -31.6826 16.4798 -4.61484
LeftShoulder1  1.65871 -4.59157 -13.5278
LeftArm  -16.172 -17.9153 -39.1106
LeftForeArm  -18.1537 -31.3306 -7.63378
LeftHand  -0.895823 -1.30348 15.8482
RightShoulder  1.31449 1.82639 18.173
RightArm  19.9722 -24.2895 52.3545
RightForeArm  9.89197 17.0429 9.15769
RightHand  -0.514577 -0.490573 -12.1935
LeftUpLeg  -7.3765 14.9668 32.3748
LeftLeg  13.8697 3.10964 2.70518
LeftFoot  1.55192 3.94368 -34.0294
LeftToes  2.2737e-010 4.38529e-011 2.18788e-011
401
root  3.81652 36.1846 -1.65716 56.6927 -76.4853 -55.1516
RightUpLeg  -17.7764 -10.3948 -9.15924
RightLeg  23.8925 -4.09355 -2.20042
RightFoot  -0.0233418 -2.50325 24.8945
RightToes  -2.32832e-010 0 -3.6325e-017
Spine  24.9454 -2.43066 -14.3921
Spine1  -1.80255 -10.8221 32.8436
HEad  -30.6956 16.6692 -7.9686
LeftShoulder1  1.78881 -5.70859 -12.3548
LeftArm  -8.87764 -19.1633 -38.2334
LeftForeArm  0.406554 -19.4051 -6.16052
LeftHand  -0.745334 0.655812 18.1159
RightShoulder  1.05636 0.842094 17.8211
RightArm  -0.658778 -19.1306 47.1226
RightForeArm  21.8614 9.71032 12.5647
RightHand  -0.330845 -1.88823 -10.6466
LeftUpLeg  -14.6675 8.28005 40.2679
LeftLeg  19.0991 3.77963 1.61868
LeftFoot  0.831224 3.65515 -33.4274
LeftToes  2.2737e-010 4.38529e-011 2.18788e-011
402
root  3.95303 35.7982 -1.81354 55.6143 -69.1223 -55.8088
RightUpLeg  -15.2651 -16.7076 -3.61937
RightLeg  24.4964 -2.0467 -1.2411
RightFoot  -1.09068 -2.34327 25.6416
RightToes  -2.32832e-010 0 -3.6325e-017
Spine  27.776 -2.47494 -12.2234
Spine1  -1.94212 -12.3841 42.3573
HEad  -32.0337 17.2425 -10.2812
LeftShoulder1  1.82 -6.54633 -10.879
LeftArm  -11.604 -20.8909 -35.2394
LeftForeArm  28.8315 -6.38679 -11.3858
LeftHand  -0.580231 1.21211 16.1841
RightShoulder  0.945657 0.359713 18.0104
RightArm  -14.6998 -12.6419 42.476
RightForeArm  21.071 4.84304 12.1923
RightHand  -0.176509 -3.04039 -8.30299
LeftUpLeg  -18.9141 5.75619 46.8092
LeftLeg  22.463 1.41278 0.976833
LeftFoot  0.128874 3.4739 -33.684
LeftToes  2.2737e-010 4.38529e-011 2.18788e-011
403
root  4.02666 35.5427 -1.88065 57.0641 -67.9332 -58.8568
RightUpLeg  -14.4186 -18.7892 -2.57158
RightLeg  25.7621 0.236401 -0.105817
RightFoot  -1.98706 -2.20936 26.386
RightToes  -2.32832e-010 0 -3.6325e-017
Spine  28.1282 -1.80822 -11.7123
Spine1  0.967323 -13.0597 44.2453
HEad  -34.8338 17.4381 -10.1593
LeftShoulder1  1.83032 -6.55589 -10.9902
LeftArm  -9.30754 -21.6452 -30.151
LeftForeArm  41.2742 1.78403 -12.9037
LeftHand  -0.655047 0.420276 15.3103
RightShoulder  1.06617 0.726498 18.7776
RightArm  -19.9365 -7.2081 39.3678
RightForeArm  13.2688 4.19033 10.7004
RightHand  -0.196568 -2.77223 -8.15504
LeftUpLeg  -18.5198 4.86232 49.1146
LeftLeg  23.7534 0.789755 0.710493
LeftFoot  -0.75581 3.35405 -35.1115
LeftToes  2.2737e-010 4.38529e-011 2.18788e-011
404
root  4.09596 35.5065 -1.81969 62.5195 -72.4526 -64.6229
RightUpLeg  -16.2394 -15.3212 -5.46779
RightLeg  27.5683 0.723641 0.174955
RightFoot  -2.01081 -2.19799 26.3292
RightToes  -2.32832e-010 0 -3.6325e-017
Spine  26.8414 -0.88572 -11.8138
Spine1  3.54586 -11.7127 38.3874
HEad  -37.2487 16.1276 -7.9788
LeftShoulder1  1.92356 -6.26453 -12.6455
LeftArm  -10.2374 -20.1571 -23.7177
LeftForeArm  39.6274 6.18428 -12.8082
LeftHand  -0.506972 2.06086 17.8605
RightShoulder  1.26427 1.39677 19.426
RightArm  -22.1377 -5.09602 38.3047
RightForeArm  9.79117 5.46072 9.85979
RightHand  -0.362362 -1.74362 -11.2678
LeftUpLeg  -15.1893 6.55364 46.432
LeftLeg  23.9302 1.34255 0.980839
LeftFoot  -1.57345 3.19575 -36.1245
LeftToes  2.2737e-010 4.38529e-011 2.18788e-011
